<?xml version="1.0" standalone="no"?>
<!DOCTYPE svg PUBLIC "-//W3C//DTD SVG 20010904//EN"
 "http://www.w3.org/TR/2001/REC-SVG-20010904/DTD/svg10.dtd">
<svg version="1.0" xmlns="http://www.w3.org/2000/svg"
 width="2212.000000pt" height="1298.000000pt" viewBox="0 0 2212.000000 1298.000000"
 preserveAspectRatio="xMidYMid meet">
<metadata>
Created by potrace 1.15, written by Peter Selinger 2001-2017
</metadata>
<g transform="translate(0.000000,1298.000000) scale(0.100000,-0.100000)"
fill="#000000" stroke="none">
<path d="M7845 11969 c-82 -5 -180 -13 -217 -19 -37 -5 -88 -10 -114 -10 -26
0 -75 -4 -108 -9 -34 -5 -101 -15 -151 -21 -49 -6 -106 -16 -125 -21 -19 -5
-99 -20 -177 -34 -78 -13 -173 -31 -210 -40 -37 -9 -108 -25 -158 -36 -124
-29 -164 -39 -209 -56 -21 -7 -41 -12 -43 -9 -2 2 -19 0 -36 -6 -18 -5 -63
-17 -102 -27 -99 -26 -386 -110 -410 -121 -11 -5 -36 -13 -55 -19 -68 -20
-166 -53 -215 -72 -27 -10 -117 -44 -200 -75 -82 -30 -178 -69 -213 -85 -35
-16 -68 -29 -73 -29 -6 0 -50 -18 -97 -41 -80 -37 -127 -58 -207 -94 -16 -8
-118 -57 -225 -110 -165 -83 -285 -147 -570 -307 -253 -142 -727 -458 -1060
-707 -508 -379 -925 -763 -1250 -1151 -25 -29 -49 -58 -55 -64 -17 -19 -241
-319 -257 -346 -9 -14 -46 -72 -83 -130 -280 -430 -483 -881 -575 -1271 -18
-74 -35 -150 -40 -169 -14 -61 -29 -182 -34 -280 l-5 -95 13 80 c8 44 19 125
26 180 6 55 22 134 35 175 12 41 28 100 35 130 7 30 20 78 30 105 9 28 25 75
34 105 36 113 73 200 224 525 40 88 79 167 86 175 7 8 25 39 40 69 27 52 163
267 204 321 10 14 43 61 73 105 68 99 147 202 160 210 5 4 27 31 49 60 22 30
59 73 82 97 24 24 102 109 175 189 173 189 373 384 553 537 47 40 105 92 130
116 56 53 121 105 221 176 42 30 119 89 171 130 138 113 218 173 263 199 22
14 83 55 135 93 105 77 340 232 366 242 9 3 53 30 98 60 44 29 108 68 141 85
71 38 196 111 216 127 27 21 229 128 274 144 21 8 170 81 288 142 40 20 108
51 152 69 44 18 127 55 185 83 111 53 167 76 188 76 16 0 174 62 237 93 28 13
93 39 145 57 52 18 104 36 115 40 11 5 36 13 55 19 19 6 71 22 115 36 44 13
100 29 125 34 46 10 136 33 270 71 41 11 102 27 135 34 33 8 80 20 105 29 25
8 65 19 90 25 25 6 56 13 70 17 63 15 318 57 441 74 37 4 72 11 77 15 15 9
183 33 397 56 159 17 563 40 772 44 39 0 75 4 79 9 9 9 -405 7 -601 -4z"/>
<path d="M8940 11951 c19 -5 78 -14 130 -19 209 -23 438 -53 495 -66 33 -8
105 -22 160 -30 55 -9 125 -23 155 -31 30 -8 75 -20 100 -26 25 -6 54 -14 65
-19 11 -4 47 -13 80 -20 33 -7 121 -32 195 -57 74 -25 155 -49 180 -54 25 -5
54 -13 65 -18 11 -6 40 -17 65 -25 87 -29 150 -53 157 -59 3 -4 12 -7 19 -7
31 0 324 -132 564 -254 371 -190 720 -424 870 -583 140 -149 287 -320 334
-387 27 -39 70 -98 95 -131 26 -33 83 -113 127 -178 111 -166 131 -197 152
-237 10 -19 37 -64 59 -100 77 -126 220 -450 249 -565 41 -161 74 -618 55
-760 -5 -44 -15 -134 -21 -200 -12 -138 -26 -246 -41 -325 -16 -80 -110 -339
-168 -464 -28 -59 -51 -109 -51 -110 0 -2 -32 -57 -71 -122 -96 -160 -186
-294 -253 -379 -31 -38 -73 -92 -95 -120 -97 -125 -533 -573 -677 -695 -16
-14 -83 -72 -149 -130 -66 -58 -156 -135 -200 -170 -43 -36 -91 -75 -105 -86
-171 -143 -222 -184 -242 -195 -12 -6 -25 -15 -28 -19 -5 -6 -71 -55 -355
-264 -127 -93 -280 -196 -291 -196 -8 0 -73 -43 -256 -170 -49 -34 -275 -170
-283 -170 -2 0 -34 -19 -71 -41 -38 -23 -91 -54 -119 -69 -27 -14 -70 -38 -95
-52 -51 -28 -333 -175 -425 -221 -104 -52 -231 -107 -245 -107 -5 0 -10 -4
-10 -8 0 -4 -17 -14 -37 -21 -21 -8 -78 -33 -128 -56 -49 -23 -108 -48 -130
-56 -22 -7 -45 -19 -51 -25 -5 -7 -23 -16 -40 -20 -28 -7 -100 -36 -136 -55
-10 -5 -24 -9 -32 -9 -7 0 -35 -12 -61 -27 l-48 -26 -91 16 c-50 9 -104 19
-121 23 -16 3 -52 8 -80 10 -27 3 -59 9 -70 14 -11 5 -42 11 -70 14 -27 2 -88
9 -135 14 -375 46 -993 51 -1465 13 -142 -11 -292 -30 -320 -41 -38 -14 -175
-50 -192 -50 -10 0 -27 -7 -37 -15 -11 -8 -41 -18 -68 -21 -27 -4 -51 -10 -54
-15 -3 -5 -24 -14 -47 -20 -23 -6 -62 -20 -87 -31 -25 -12 -70 -32 -100 -45
-30 -13 -63 -28 -72 -33 -10 -6 -23 -10 -30 -10 -6 0 -18 -7 -27 -15 -23 -22
-99 -78 -130 -94 -38 -21 -50 -36 -41 -50 6 -11 12 -11 31 -1 13 7 26 16 29
20 3 4 32 21 65 39 32 18 71 41 86 52 15 10 30 19 33 19 3 0 25 9 49 19 66 31
172 71 185 71 7 0 20 4 30 9 40 21 140 59 172 65 19 4 44 11 55 16 35 14 207
51 290 62 44 6 89 14 100 19 11 5 70 11 130 13 61 3 175 9 255 15 195 12 671
12 795 0 55 -5 156 -14 225 -19 201 -14 291 -27 352 -48 31 -11 76 -23 100
-27 24 -3 52 -9 62 -12 18 -5 18 -7 -5 -24 -13 -10 -29 -19 -34 -19 -6 0 -61
-25 -122 -55 -62 -30 -116 -55 -120 -55 -5 0 -28 -9 -51 -20 -22 -11 -46 -20
-51 -20 -6 0 -26 -9 -46 -20 -20 -11 -45 -20 -55 -20 -11 0 -28 -4 -38 -10 -9
-5 -57 -23 -107 -40 -49 -17 -98 -35 -107 -40 -10 -6 -25 -10 -33 -10 -16 0
-163 -44 -200 -60 -32 -13 -197 -61 -233 -67 -18 -3 -35 -9 -38 -14 -3 -5 -16
-9 -30 -9 -13 0 -66 -13 -116 -30 -50 -16 -108 -30 -129 -30 -22 0 -39 -4 -39
-10 0 -6 -28 -10 -64 -10 -36 0 -67 -4 -70 -9 -3 -4 -34 -11 -68 -15 -35 -3
-112 -13 -173 -21 -60 -9 -161 -20 -223 -25 -62 -5 -121 -12 -132 -15 -50 -16
-300 -20 -395 -6 -142 20 -183 23 -190 11 -13 -22 16 -35 78 -36 34 -1 127 -6
207 -13 164 -12 458 0 595 25 44 8 118 19 165 24 80 9 144 22 282 56 32 8 71
14 87 14 17 0 32 4 35 9 3 5 23 11 43 14 21 3 54 10 73 15 19 6 67 18 105 27
39 10 74 21 80 26 5 5 18 9 29 9 11 0 45 9 75 19 31 11 90 29 131 42 41 12 82
26 90 30 8 5 58 22 110 38 52 16 133 44 180 61 165 61 196 72 270 96 41 13 84
29 95 34 11 5 52 20 90 34 39 13 99 36 134 50 95 38 102 38 516 -29 28 -4 224
-42 260 -50 17 -3 53 -10 80 -15 28 -5 91 -18 140 -30 50 -12 115 -24 145 -26
30 -3 64 -9 75 -14 11 -5 52 -11 90 -14 39 -2 142 -11 230 -20 88 -8 212 -15
275 -16 63 0 175 -5 249 -10 111 -9 142 -8 180 4 25 8 70 18 98 21 29 4 55 11
59 16 3 5 16 9 30 9 13 0 24 5 24 10 0 6 7 10 16 10 8 0 41 13 72 29 31 16 71
35 87 42 17 8 49 26 72 41 23 15 44 28 47 28 3 0 15 9 27 21 11 11 27 19 36
17 9 -2 34 -37 55 -78 21 -41 43 -76 48 -78 6 -2 10 -11 10 -20 0 -10 9 -23
20 -30 11 -7 20 -20 20 -30 0 -44 81 -86 146 -75 34 6 35 6 15 24 -11 11 -23
19 -27 19 -15 0 -104 73 -104 86 0 8 -4 14 -9 14 -13 0 -62 106 -73 155 -5 22
-13 78 -18 125 -5 47 -13 103 -18 125 l-9 40 -8 -30 c-4 -16 -11 -34 -15 -40
-4 -5 -11 -26 -15 -45 -12 -55 -51 -123 -87 -151 -54 -41 -186 -119 -204 -119
-9 0 -28 -8 -42 -19 -32 -22 -131 -50 -222 -63 -108 -15 -528 -21 -600 -9 -36
5 -108 15 -160 22 -52 6 -160 22 -240 36 -80 13 -174 28 -210 33 -36 5 -85 13
-110 18 -25 5 -76 15 -114 21 -38 7 -81 18 -97 26 -15 8 -38 15 -50 15 -13 0
-36 4 -53 9 -86 27 -190 50 -269 61 -48 7 -90 16 -93 21 -10 17 16 37 69 55
28 9 58 23 65 31 7 7 25 16 40 20 25 6 61 21 232 101 187 86 654 316 675 332
6 4 53 30 105 57 134 70 211 113 242 135 14 10 28 18 31 18 3 0 38 20 79 45
40 25 84 50 98 57 14 7 44 25 68 41 23 16 64 38 90 49 51 23 212 129 232 153
7 8 16 15 20 15 4 0 34 18 66 40 33 22 84 57 114 78 73 49 258 178 290 202 14
10 72 53 130 96 58 43 107 81 110 84 3 3 34 27 70 55 100 76 381 308 462 382
387 350 652 624 828 853 19 25 37 47 40 50 3 3 17 21 30 40 13 19 32 42 42 51
10 9 18 20 18 24 0 5 20 36 45 69 107 143 250 400 312 561 75 196 148 488 185
739 15 105 22 521 9 581 -6 28 -25 122 -42 210 -39 201 -123 453 -196 590 -27
49 -31 58 -50 100 -17 39 -52 102 -99 175 -12 19 -36 62 -54 95 -17 33 -44 76
-58 95 -15 19 -36 49 -47 67 -35 57 -108 158 -121 168 -13 10 -34 38 -91 120
-15 22 -42 56 -59 75 -17 19 -55 62 -84 95 -29 33 -60 67 -69 76 -9 9 -34 36
-57 60 -146 158 -521 446 -699 536 -289 147 -354 178 -485 232 -69 29 -143 60
-165 70 -61 28 -457 169 -575 206 -110 33 -386 110 -455 125 -141 33 -188 43
-250 55 -156 30 -246 44 -355 54 -63 7 -131 14 -150 17 -72 9 -296 14 -260 5z"/>
<path d="M8555 6876 c-6 -6 -21 -27 -35 -46 -13 -19 -27 -37 -30 -40 -3 -3
-24 -30 -47 -61 -76 -102 -166 -193 -438 -439 -54 -49 -283 -232 -375 -301
-41 -30 -82 -62 -90 -70 -17 -17 -268 -189 -470 -323 -172 -114 -440 -276
-457 -276 -7 0 -13 -3 -13 -7 0 -5 -10 -13 -23 -19 -12 -6 -83 -42 -157 -80
-122 -62 -206 -102 -340 -162 -25 -11 -67 -30 -95 -42 -27 -12 -59 -26 -70
-30 -11 -4 -41 -17 -67 -29 -26 -12 -50 -21 -53 -21 -3 0 -24 -8 -48 -19 -95
-42 -173 -71 -189 -71 -9 0 -19 -4 -23 -9 -3 -5 -49 -24 -103 -41 -53 -17
-105 -35 -114 -41 -10 -5 -28 -9 -41 -9 -13 0 -28 -5 -34 -11 -6 -6 -30 -15
-54 -20 -40 -9 -110 -28 -229 -63 -25 -8 -72 -19 -105 -26 -33 -6 -70 -16 -83
-21 -13 -5 -36 -9 -52 -9 -16 0 -41 -5 -57 -11 -39 -16 -247 -54 -378 -70 -38
-4 -144 -17 -235 -28 -191 -23 -682 -51 -915 -51 -88 0 -227 5 -310 11 -151
10 -372 45 -390 61 -5 4 -25 8 -45 8 -20 0 -40 4 -45 8 -6 4 -37 16 -70 27
-33 10 -65 22 -70 26 -6 4 -33 15 -60 24 -58 20 -114 45 -430 194 -260 122
-462 228 -516 271 -18 14 -57 45 -88 68 -129 100 -253 261 -345 450 -20 39
-36 79 -36 88 0 8 -6 27 -14 42 -7 15 -23 63 -34 107 -12 44 -32 122 -46 174
-14 52 -30 144 -37 205 -7 61 -16 118 -21 126 -11 19 1 -206 13 -238 5 -13 9
-35 9 -48 0 -46 59 -277 89 -349 86 -204 120 -272 187 -366 83 -118 250 -267
379 -339 22 -12 52 -31 66 -41 62 -44 465 -249 489 -249 5 0 10 -4 10 -10 0
-5 6 -10 13 -10 8 0 27 -6 43 -14 16 -8 70 -30 119 -51 50 -20 104 -43 120
-50 17 -7 48 -18 70 -25 22 -6 54 -17 70 -25 45 -20 185 -58 230 -63 22 -2 44
-8 50 -13 5 -5 38 -9 73 -9 35 0 71 -4 80 -9 27 -14 199 -22 477 -21 377 1
758 27 1095 75 63 9 148 21 189 26 41 5 82 14 92 19 10 6 31 10 48 10 16 0 67
9 113 21 46 11 106 24 133 28 28 5 102 23 165 41 63 17 130 34 148 37 18 3 35
9 38 14 3 5 16 9 30 9 13 0 32 4 42 9 9 5 62 24 117 41 55 18 109 36 120 40
11 5 43 16 70 25 28 10 59 21 70 25 11 5 29 11 40 13 28 7 186 73 273 113 40
19 75 34 78 34 7 0 203 90 329 152 93 45 370 191 395 208 14 9 57 34 95 55 39
21 108 64 155 94 47 31 94 60 105 66 237 130 783 536 1065 794 227 206 318
319 392 487 13 28 7 66 -7 50z"/>
<path d="M13929 3920 c-30 -9 -113 -66 -204 -138 -61 -50 -129 -126 -200 -226
-22 -31 -46 -63 -52 -71 -7 -7 -13 -17 -13 -20 0 -4 -9 -18 -20 -32 -11 -14
-20 -36 -20 -49 0 -31 28 -32 32 -1 2 12 8 20 13 17 6 -3 8 -34 6 -72 l-3 -68
39 0 c58 0 119 44 270 194 128 127 165 180 108 154 -28 -13 -45 -4 -27 14 7 7
12 24 12 38 0 24 61 100 81 100 5 0 6 7 3 15 -10 26 -32 16 -44 -20 -6 -19
-16 -35 -21 -35 -5 0 -21 -14 -36 -31 -26 -29 -180 -170 -231 -211 -52 -42
-102 -69 -121 -66 -23 3 -23 6 40 99 53 79 283 308 361 358 37 24 65 47 62 52
-3 5 -6 9 -7 8 -1 0 -14 -4 -28 -9z"/>
<path d="M11882 3848 c-6 -18 -16 -61 -22 -95 -7 -35 -17 -63 -21 -63 -5 0 -9
-7 -9 -15 0 -14 -48 -101 -72 -131 -68 -84 -120 -130 -178 -157 -70 -34 -61
-48 14 -23 64 22 112 55 172 117 63 66 88 103 104 152 9 30 16 37 33 35 29 -4
66 -82 67 -139 0 -42 -5 -51 -82 -141 -46 -53 -123 -141 -173 -196 -108 -120
-155 -177 -155 -190 0 -6 -4 -12 -9 -14 -16 -6 -110 -154 -164 -260 -31 -59
-65 -140 -77 -180 -11 -40 -26 -88 -32 -107 -6 -19 -11 -86 -11 -150 -1 -101
2 -122 22 -163 27 -56 94 -118 127 -118 17 0 22 -4 18 -15 -4 -10 0 -15 14
-15 12 0 24 -4 27 -10 12 -19 140 -5 187 21 10 5 23 9 29 9 25 0 168 162 197
223 62 129 66 141 108 392 3 17 8 214 11 438 5 365 7 409 22 415 9 3 21 11 27
16 37 37 328 243 354 251 11 4 20 11 20 16 0 5 5 9 11 9 16 0 41 29 34 40 -3
5 -14 10 -24 10 -19 0 -111 -55 -111 -67 0 -5 -15 -14 -32 -22 -18 -8 -35 -17
-38 -21 -3 -3 -34 -20 -70 -38 -36 -17 -84 -46 -107 -63 -23 -17 -48 -29 -56
-26 -8 3 -20 27 -27 54 -8 26 -19 57 -26 68 -6 11 -22 50 -34 87 -12 37 -30
74 -40 83 -17 15 -19 14 -28 -17z m92 -510 c3 -13 6 -144 6 -293 0 -257 -12
-418 -40 -535 -36 -153 -101 -307 -152 -366 -87 -98 -212 -146 -315 -119 -58
15 -93 32 -93 44 0 5 -16 33 -36 62 -19 29 -38 66 -41 81 -3 16 -10 31 -14 34
-12 7 -11 161 1 169 6 3 10 14 10 24 0 41 134 308 211 423 22 31 39 61 39 65
0 37 367 433 401 433 9 0 19 -10 23 -22z"/>
<path d="M19465 3844 c-180 -24 -265 -37 -291 -45 -17 -5 -47 -9 -67 -9 -20 0
-39 -4 -42 -10 -3 -5 -23 -10 -44 -10 -20 0 -41 -4 -46 -9 -6 -4 -53 -18 -105
-31 -52 -12 -104 -26 -115 -30 -11 -5 -58 -18 -105 -30 -118 -31 -191 -54
-290 -91 -47 -17 -101 -34 -120 -36 -19 -2 -44 -8 -55 -13 -111 -49 -536 -99
-630 -75 -34 9 -85 52 -85 73 0 24 -55 10 -58 -15 -4 -25 51 -83 77 -83 9 0
26 -7 38 -15 12 -8 51 -22 87 -30 76 -18 163 -10 346 32 58 14 122 27 143 30
20 3 40 9 43 14 3 5 16 9 29 9 13 0 26 4 29 9 3 5 18 11 33 14 24 4 70 19 148
47 11 4 40 13 65 20 70 19 143 42 165 51 73 32 242 78 315 86 25 3 50 9 55 13
11 9 206 43 340 60 50 6 185 11 301 11 171 0 217 -3 249 -17 73 -29 143 -83
195 -149 69 -87 101 -87 65 -2 -8 20 -15 47 -15 61 0 25 -64 96 -87 96 -7 0
-21 4 -31 9 -9 5 -35 14 -57 19 -22 6 -66 17 -97 26 -55 16 -314 30 -383 20z"/>
<path d="M12533 3833 c4 -3 1 -16 -5 -27 -9 -15 -13 -76 -13 -208 0 -178 1
-188 21 -209 l22 -21 17 48 c10 27 26 67 36 89 74 164 74 165 34 165 -29 0
-45 19 -45 54 0 33 -45 116 -62 116 -6 0 -8 -3 -5 -7z"/>
<path d="M12860 3743 c0 -15 155 -315 172 -333 10 -11 18 -24 18 -31 0 -6 14
-24 32 -41 27 -25 33 -27 46 -15 12 13 12 18 -3 41 -10 14 -21 26 -25 26 -5 0
-19 21 -33 48 -54 106 -86 169 -102 205 -20 46 -72 107 -91 107 -8 0 -14 -3
-14 -7z"/>
<path d="M16858 3634 c-3 -3 -4 -14 -1 -24 6 -22 24 -26 153 -35 47 -4 103
-10 125 -15 84 -18 104 -19 118 -6 7 8 22 16 33 19 11 3 3 5 -17 6 -22 1 -39
7 -42 15 -5 12 -11 13 -36 3 -24 -9 -54 -7 -150 9 -66 11 -118 17 -115 12 3
-4 0 -8 -5 -8 -6 0 -13 0 -16 0 -3 0 -5 3 -4 6 2 14 -33 29 -43 18z"/>
<path d="M15468 3570 c-15 -5 -34 -14 -42 -22 -7 -7 -43 -35 -79 -63 -39 -29
-70 -62 -77 -79 -13 -38 -13 -86 1 -86 6 0 49 38 95 84 57 57 84 92 84 108 0
16 3 19 9 10 7 -12 12 -12 29 -1 44 28 29 62 -20 49z"/>
<path d="M1000 2559 l0 -510 33 3 c32 3 32 4 35 61 2 31 4 57 6 57 1 0 22 -18
46 -40 24 -22 68 -52 97 -66 48 -24 62 -26 141 -22 104 5 157 27 225 94 65 63
97 134 104 228 14 184 -58 330 -197 395 -44 20 -70 25 -130 25 -93 1 -151 -25
-227 -99 l-53 -51 0 218 0 218 -40 0 -40 0 0 -511z m461 135 c121 -60 190
-221 154 -359 -37 -141 -154 -240 -282 -239 -75 2 -172 51 -218 111 l-35 46 0
146 0 146 38 50 c93 123 221 160 343 99z"/>
<path d="M4929 2863 c-1 -115 -1 -211 0 -215 2 -16 -14 -6 -61 38 -27 25 -74
57 -106 72 -155 73 -341 -3 -418 -171 -26 -56 -29 -72 -29 -173 0 -107 1 -112
38 -187 29 -58 51 -87 87 -116 75 -59 124 -74 222 -69 94 5 157 32 220 92 20
20 39 36 42 36 3 0 6 -17 6 -38 0 -48 23 -82 57 -82 24 0 25 2 18 38 -5 20
-10 250 -12 510 l-3 472 -30 0 -30 0 -1 -207z m-164 -170 c58 -28 86 -52 126
-107 29 -39 29 -41 29 -178 0 -157 -5 -173 -71 -232 -119 -108 -265 -106 -379
6 -128 123 -124 348 6 468 89 82 182 96 289 43z"/>
<path d="M2433 2775 c-60 -16 -144 -57 -161 -78 -9 -10 -9 -17 1 -30 11 -15
19 -13 85 20 77 39 156 52 227 39 45 -9 107 -64 134 -120 21 -42 30 -150 14
-159 -5 -3 -37 1 -73 9 -180 38 -362 -5 -421 -99 -17 -27 -19 -46 -17 -114 3
-74 6 -85 34 -119 17 -21 50 -49 74 -61 88 -47 270 -21 361 52 50 39 59 42 53
18 -7 -30 32 -83 61 -83 21 0 25 5 25 29 0 17 -4 32 -8 35 -5 3 -12 112 -15
242 -6 230 -7 239 -33 291 -56 116 -194 167 -341 128z m260 -376 l37 -12 0
-85 0 -85 -44 -43 c-114 -109 -311 -112 -381 -5 -37 55 -41 92 -16 145 40 81
108 108 261 102 58 -2 122 -10 143 -17z"/>
<path d="M3557 2780 c-72 -12 -136 -48 -194 -107 l-53 -54 0 81 0 81 -32 -3
-33 -3 -3 -362 -2 -363 40 0 40 0 0 230 c0 264 2 273 77 348 66 65 126 92 208
92 58 0 68 -3 100 -31 54 -48 63 -95 71 -386 l7 -253 30 0 29 0 -5 278 c-5
315 -13 359 -72 411 -54 47 -107 58 -208 41z"/>
<path d="M6207 2780 c-65 -17 -138 -60 -188 -112 l-48 -50 -3 78 c-3 78 -3 79
-30 82 l-28 3 0 -365 0 -366 30 0 30 0 0 213 c0 116 5 229 10 249 15 52 78
128 141 169 50 32 59 34 137 34 83 0 84 0 117 -36 48 -53 55 -103 55 -384 l0
-245 35 0 35 0 0 208 c0 277 -12 383 -48 442 -15 24 -41 52 -58 62 -37 22
-134 31 -187 18z"/>
<path d="M6850 2774 c-60 -16 -180 -71 -180 -83 0 -4 6 -15 13 -24 11 -16 18
-15 86 20 68 35 80 38 160 38 78 0 92 -3 128 -27 58 -38 93 -112 93 -196 l0
-64 -27 7 c-167 42 -321 30 -414 -32 -55 -37 -94 -118 -85 -180 8 -62 46 -123
97 -159 40 -27 48 -29 143 -29 115 0 170 16 242 71 24 19 46 34 49 34 3 0 5
-12 5 -28 0 -41 26 -72 61 -72 25 0 29 4 29 29 0 16 -6 34 -14 40 -11 9 -15
61 -18 244 -4 228 -4 233 -31 283 -62 121 -187 168 -337 128z m235 -370 l65
-16 0 -79 c0 -77 -1 -80 -37 -120 -48 -53 -122 -90 -194 -96 -79 -8 -124 3
-165 39 -46 41 -64 77 -64 132 0 66 51 120 140 147 45 13 189 9 255 -7z"/>
<path d="M7669 2777 c-57 -16 -132 -70 -170 -121 l-29 -40 0 56 c0 77 -14 110
-43 106 l-22 -3 -3 -362 -2 -363 34 0 34 0 4 243 c3 269 1 259 77 340 63 67
105 87 186 87 62 0 67 -2 103 -38 57 -57 63 -92 69 -379 l5 -253 28 0 29 0 3
233 c3 261 6 272 89 362 53 57 93 75 171 75 56 0 68 -4 100 -30 64 -53 71 -90
76 -382 l4 -258 29 0 30 0 -3 288 -3 287 -31 55 c-17 30 -46 65 -63 77 -99 68
-270 22 -359 -97 -19 -25 -37 -46 -41 -47 -3 -1 -20 26 -36 60 -23 47 -40 67
-71 84 -51 28 -135 37 -195 20z"/>
<path d="M9123 2775 c-139 -43 -229 -149 -253 -298 -27 -172 51 -333 198 -408
41 -21 61 -24 157 -24 93 1 116 4 151 22 86 45 153 125 122 144 -24 16 -40 9
-85 -32 -125 -115 -292 -108 -402 18 -60 67 -84 140 -79 234 10 170 123 289
277 292 78 1 127 -18 187 -75 46 -44 54 -47 78 -38 31 12 32 14 6 56 -59 95
-233 148 -357 109z"/>
<path d="M9809 2781 c-53 -10 -116 -40 -141 -68 -46 -51 -64 -175 -32 -221 24
-35 105 -71 232 -103 64 -17 133 -39 153 -51 78 -44 89 -130 25 -194 -38 -38
-89 -54 -172 -54 -76 0 -140 19 -204 60 -52 34 -80 34 -80 1 0 -12 17 -30 48
-48 82 -52 108 -58 237 -58 106 0 126 3 168 24 59 29 93 71 107 135 28 128
-22 175 -250 236 -63 17 -131 38 -151 46 -96 41 -89 168 12 222 39 21 54 23
136 20 82 -3 96 -7 143 -36 58 -36 78 -40 87 -15 8 20 -24 48 -94 80 -57 26
-152 37 -224 24z"/>
<path d="M1837 2773 c-4 -3 -7 -168 -7 -365 l0 -358 35 0 35 0 0 233 0 233 29
46 c50 79 106 121 198 148 47 14 61 36 39 58 -34 34 -159 -26 -230 -110 l-36
-43 0 83 0 82 -28 0 c-16 0 -32 -3 -35 -7z"/>
<path d="M2997 2774 c-4 -4 -7 -169 -7 -366 l0 -358 35 0 35 0 -2 363 -3 362
-25 3 c-14 2 -29 0 -33 -4z"/>
<path d="M5106 2772 c-2 -4 45 -118 105 -252 163 -364 201 -453 201 -476 1
-28 -79 -208 -100 -227 -9 -8 -30 -19 -47 -24 -19 -6 -31 -17 -33 -31 -5 -30
18 -36 75 -20 34 10 54 23 69 45 12 18 100 222 197 455 232 558 220 527 203
534 -32 12 -55 -17 -101 -133 -74 -187 -186 -455 -202 -488 l-16 -29 -27 54
c-15 30 -78 172 -140 315 -62 143 -117 266 -123 273 -10 13 -53 17 -61 4z"/>
<path d="M8660 2415 l0 -365 30 0 30 0 0 365 0 365 -30 0 -30 0 0 -365z"/>
<path d="M7385 1333 c-78 -41 -111 -100 -123 -219 l-7 -69 -45 -5 c-37 -4 -46
-9 -48 -27 -3 -20 2 -22 45 -25 l48 -3 3 -332 2 -333 35 0 35 0 0 335 0 335
100 0 c93 0 100 1 100 20 0 24 -19 29 -125 32 l-80 3 3 55 c5 74 42 154 81
174 37 20 101 20 146 2 32 -14 34 -13 41 6 3 12 0 25 -7 33 -39 35 -152 46
-204 18z"/>
<path d="M1012 868 c3 -318 8 -482 16 -500 15 -37 61 -58 124 -58 77 0 98 8
98 36 0 23 -4 24 -58 24 -50 0 -62 4 -83 26 l-24 26 -3 459 -3 459 -35 0 -36
0 4 -472z"/>
<path d="M2060 830 l0 -510 30 0 30 0 0 60 c0 33 2 60 3 60 2 0 23 -18 46 -40
23 -22 65 -52 94 -67 44 -24 64 -28 132 -28 71 0 89 4 147 33 77 38 130 92
167 171 23 50 26 67 26 171 0 103 -3 121 -27 172 -35 76 -97 141 -161 169 -42
19 -69 24 -137 23 -104 0 -162 -24 -232 -97 l-48 -48 0 220 0 221 -35 0 -35 0
0 -510z m448 134 c54 -27 94 -70 133 -144 20 -38 24 -59 24 -140 0 -84 -3
-101 -28 -147 -55 -106 -145 -167 -247 -167 -92 -1 -179 45 -229 120 -31 47
-31 48 -31 184 l0 137 39 54 c39 54 92 98 141 118 50 20 142 13 198 -15z"/>
<path d="M9380 1119 l0 -222 -55 52 c-77 73 -130 95 -230 95 -97 1 -162 -25
-223 -87 -143 -147 -143 -398 0 -553 119 -129 318 -136 451 -14 60 55 57 55
72 -18 4 -19 17 -40 31 -49 23 -15 26 -15 42 1 16 16 16 19 -2 49 -17 30 -19
64 -24 500 l-5 467 -28 0 -29 0 0 -221z m-170 -150 c54 -24 124 -90 151 -141
27 -53 27 -254 0 -313 -55 -122 -231 -185 -353 -126 -65 31 -131 105 -158 177
-40 107 -14 249 64 341 65 77 200 106 296 62z"/>
<path d="M5357 1284 c-4 -4 -7 -60 -7 -125 l0 -118 -47 -3 c-41 -3 -48 -6 -51
-25 -3 -20 2 -22 45 -25 l48 -3 5 -302 c5 -283 6 -302 25 -323 31 -35 70 -50
124 -50 70 0 131 25 131 54 0 33 -8 36 -45 20 -62 -25 -143 -9 -159 31 -3 9
-6 142 -6 296 l0 279 81 0 c78 0 80 1 77 23 -3 20 -9 22 -83 27 l-80 5 0 120
0 120 -25 3 c-14 2 -29 0 -33 -4z"/>
<path d="M3615 1150 c-176 -23 -315 -124 -391 -283 -164 -347 80 -757 450
-757 102 0 226 37 226 67 0 18 -10 17 -92 -8 -157 -48 -330 -4 -449 112 -91
89 -149 229 -149 360 0 220 165 425 378 470 32 6 91 9 136 6 192 -13 367 -169
416 -372 26 -110 9 -264 -39 -342 -40 -65 -112 -86 -153 -45 -20 19 -22 37
-30 234 -7 190 -11 218 -31 257 -37 76 -61 86 -190 86 -99 0 -118 -3 -159 -24
-87 -44 -64 -81 24 -40 70 33 193 34 234 3 38 -28 67 -87 72 -148 l4 -51 -141
3 c-158 5 -206 -6 -254 -56 -59 -61 -53 -187 11 -245 71 -65 240 -61 343 7 21
14 41 26 43 26 3 0 10 -17 16 -38 15 -57 42 -77 101 -75 75 2 119 29 152 94
58 116 59 342 1 469 -92 202 -306 319 -529 290z m205 -523 l45 -13 3 -55 c4
-72 -23 -114 -98 -152 -80 -40 -143 -44 -199 -15 -60 31 -84 65 -85 122 0 39
5 51 31 77 56 57 181 71 303 36z"/>
<path d="M1488 1035 c-64 -16 -128 -46 -146 -68 -9 -10 -9 -17 1 -30 11 -14
20 -12 86 20 85 41 174 53 236 33 59 -19 112 -74 130 -133 15 -51 21 -147 8
-147 -3 0 -45 7 -92 16 -159 30 -291 5 -370 -69 -103 -98 -73 -257 64 -330 32
-18 56 -22 125 -21 101 1 175 26 237 79 23 19 44 35 47 35 3 0 6 -16 6 -35 0
-62 70 -103 78 -46 2 13 -1 33 -6 45 -6 12 -13 120 -15 241 -3 144 -9 232 -18
255 -39 108 -114 160 -237 166 -47 2 -99 -2 -134 -11z m277 -367 c39 -15 40
-16 43 -69 5 -80 -5 -112 -44 -152 -56 -55 -116 -80 -209 -84 -70 -3 -85 -1
-120 19 -58 34 -85 80 -85 144 0 42 5 59 26 84 26 30 66 55 114 71 38 13 230
3 275 -13z"/>
<path d="M4855 1043 c-59 -8 -122 -34 -148 -61 -36 -37 -47 -73 -47 -146 0
-103 24 -121 230 -176 192 -52 232 -79 232 -155 0 -80 -77 -142 -190 -152 -72
-7 -141 13 -225 64 -55 33 -60 34 -75 19 -24 -24 -7 -45 67 -82 82 -42 164
-58 242 -50 120 14 202 60 228 129 18 46 13 128 -9 164 -26 43 -73 65 -226
108 -70 20 -144 45 -164 55 -91 47 -71 173 34 221 78 36 255 14 296 -36 14
-17 46 -20 54 -6 20 32 -57 84 -148 100 -59 11 -93 12 -151 4z"/>
<path d="M5894 1036 c-103 -24 -172 -67 -154 -96 10 -16 5 -17 125 34 173 74
324 -7 341 -181 7 -84 5 -86 -101 -67 -159 28 -296 1 -367 -73 -48 -51 -58
-73 -58 -130 1 -120 108 -223 231 -223 87 1 208 44 262 94 15 14 30 26 31 26
2 0 9 -20 15 -45 11 -45 40 -71 67 -61 18 7 18 40 0 69 -10 16 -15 82 -20 248
-4 124 -11 241 -16 260 -14 50 -72 114 -122 134 -58 23 -160 28 -234 11z m237
-362 l69 -16 0 -85 0 -86 -42 -42 c-83 -82 -236 -111 -329 -62 -98 52 -119
180 -40 251 58 53 209 70 342 40z"/>
<path d="M6739 1037 c-64 -18 -129 -59 -173 -107 -21 -23 -39 -40 -41 -38 -1
1 -6 35 -11 73 -8 62 -12 70 -31 73 l-23 3 0 -360 0 -361 30 0 30 0 0 223 c0
195 3 227 19 262 67 145 259 231 362 162 59 -39 72 -82 80 -257 4 -85 8 -208
8 -272 l1 -118 30 0 30 0 0 233 c0 325 -20 420 -95 467 -43 27 -152 35 -216
17z"/>
<path d="M7823 1040 c-97 -21 -182 -93 -230 -195 -25 -54 -28 -70 -28 -170 0
-100 3 -116 29 -172 97 -211 371 -267 541 -111 31 28 68 74 83 102 25 48 27
59 27 181 0 118 -2 135 -25 180 -31 63 -107 141 -164 166 -51 22 -171 32 -233
19z m182 -64 c57 -24 130 -100 160 -167 84 -188 -32 -415 -227 -444 -107 -16
-228 57 -285 173 -24 48 -28 70 -28 137 0 71 4 89 33 147 35 71 89 125 153
152 44 19 150 20 194 2z"/>
<path d="M8410 681 l0 -361 30 0 30 0 0 223 c1 239 6 268 54 332 32 42 103 85
165 101 39 9 47 15 49 38 3 23 0 26 -26 26 -61 0 -125 -32 -184 -91 l-57 -59
-3 73 c-3 70 -4 72 -30 75 l-28 3 0 -360z"/>
</g>
</svg>
