<?xml version="1.0" standalone="no"?>
<!DOCTYPE svg PUBLIC "-//W3C//DTD SVG 20010904//EN"
 "http://www.w3.org/TR/2001/REC-SVG-20010904/DTD/svg10.dtd">
<svg version="1.0" xmlns="http://www.w3.org/2000/svg"
 width="347.000000pt" height="359.000000pt" viewBox="0 0 347.000000 359.000000"
 preserveAspectRatio="xMidYMid meet">
<metadata>
Created by potrace 1.15, written by Peter Selinger 2001-2017
</metadata>
<g transform="translate(0.000000,359.000000) scale(0.100000,-0.100000)"
fill="#000000" stroke="none">
<path d="M2935 3221 c-92 -24 -172 -92 -214 -180 -21 -46 -26 -70 -26 -136 1
-80 11 -114 52 -178 l18 -27 -262 -262 -261 -261 -43 37 c-24 20 -68 49 -99
64 -50 25 -65 27 -170 27 -110 0 -118 -1 -180 -33 l-64 -33 -212 212 c-195
195 -212 214 -203 236 5 13 9 50 9 82 0 157 -172 268 -315 202 -168 -78 -181
-304 -25 -399 51 -31 60 -33 126 -30 57 3 79 8 110 30 l39 26 206 -205 207
-206 -35 -48 c-50 -70 -73 -144 -73 -237 0 -98 19 -163 69 -234 l39 -55 -352
-352 -352 -352 -24 26 c-13 14 -51 39 -84 55 -49 25 -71 30 -132 30 -100 0
-170 -27 -234 -90 -68 -69 -93 -139 -88 -245 7 -126 61 -210 169 -264 85 -43
151 -48 240 -21 61 18 81 30 129 78 85 85 115 190 86 302 l-17 64 359 359 358
358 59 -31 c33 -17 84 -33 113 -37 l52 -6 0 -292 0 -293 -37 -7 c-96 -18 -189
-89 -234 -180 -20 -41 -24 -65 -24 -135 0 -73 4 -93 28 -142 92 -188 342 -237
500 -97 85 74 125 205 98 316 -25 101 -113 195 -210 225 l-41 13 0 297 0 296
33 7 c51 11 129 51 174 90 l42 35 147 -177 c81 -98 165 -199 186 -225 l39 -47
-19 -38 c-27 -54 -33 -97 -21 -151 36 -164 219 -232 357 -132 132 95 113 309
-34 380 -58 29 -144 31 -192 6 -30 -15 -35 -16 -45 -3 -7 9 -91 111 -187 228
-96 116 -174 219 -174 228 1 9 12 43 24 76 29 80 25 224 -8 300 l-23 49 266
266 266 266 52 -25 c72 -36 171 -41 248 -12 167 63 251 249 189 415 -27 72
-93 141 -165 175 -54 25 -157 36 -210 22z m158 -87 c185 -63 212 -324 43 -428
-95 -59 -215 -45 -295 35 -96 96 -95 236 4 334 72 73 152 92 248 59z m-1975
-238 c52 -27 75 -62 80 -120 8 -100 -57 -163 -157 -154 -140 14 -180 194 -59
268 39 23 98 26 136 6z m937 -687 c76 -28 156 -108 184 -184 48 -127 19 -267
-74 -360 -67 -67 -137 -95 -235 -95 -98 0 -168 28 -235 95 -93 93 -122 233
-74 360 28 74 108 155 181 183 73 29 179 29 253 1z m777 -1039 c45 -13 95 -68
103 -114 20 -104 -84 -198 -184 -167 -48 14 -96 67 -105 116 -11 56 26 123 84
153 51 25 52 25 102 12z m-2041 -258 c62 -32 114 -106 125 -177 10 -68 -18
-148 -71 -200 -119 -120 -317 -84 -386 70 -23 50 -25 142 -3 193 53 127 208
180 335 114z m1213 -104 c59 -18 141 -100 156 -158 29 -107 -14 -219 -104
-275 -44 -27 -58 -30 -126 -30 -68 0 -82 3 -126 30 -62 39 -103 104 -111 176
-8 84 10 136 70 194 73 71 148 90 241 63z"/>
</g>
</svg>
